# xmcd
#
# Track frame offsets:
#	150
#	9920
#	26661
#	32363
#	55357
#	68349
#	88300
#	101868
#	122377
#	131320
#	149856
#	170646
#	185691
#	191850
#
# Disc length: 3186 seconds
# Revision: 2
# Processed by: cddbd v1.5.2PL0 Copyright (c) Steve Scherf et al.
# Submitted via: dBpowerAMP V12.0
#
DISCID=c40c700e
DTITLE=Kazuo Takeda - 竹田和夫 - Member Only [dBP-LITE-FLAC@]
DYEAR=2000
DGENRE=Blues
TTITLE0=Open The Doors Blues
TTITLE1=Next Time You See Me
TTITLE2=Summer Time
TTITLE3=Members Only
TTITLE4=Natural Ball
TTITLE5=Hoochie Coochie Man
TTITLE6=Darling You Know I Love You
TTITLE7=Strange Things Happen
TTITLE8=Flash Boogie
TTITLE9=Greyhound Blues
TTITLE10=Blind Boy
TTITLE11=Gee Baby
TTITLE12=Close The Door Blues
TTITLE13=Rat Boy Jam
EXTD=
EXTT0=
EXTT1=
EXTT2=
EXTT3=
EXTT4=
EXTT5=
EXTT6=
EXTT7=
EXTT8=
EXTT9=
EXTT10=
EXTT11=
EXTT12=
EXTT13=
PLAYORDER=
